<svg width="193" height="58" viewBox="0 0 193 58" fill="none" xmlns="http://www.w3.org/2000/svg">
<rect width="193" height="58" rx="29" fill="#B18BDD"/>
<path d="M29.928 35V23.8H34.472C35.2933 23.8 36.0667 23.9493 36.792 24.248C37.5173 24.536 38.1413 24.9307 38.664 25.432C39.1973 25.9333 39.6187 26.5307 39.928 27.224C40.2373 27.9067 40.392 28.6427 40.392 29.432C40.392 30.2 40.2373 30.9253 39.928 31.608C39.6187 32.2907 39.1973 32.8827 38.664 33.384C38.1413 33.8853 37.5173 34.28 36.792 34.568C36.0667 34.856 35.2933 35 34.472 35H29.928ZM34.408 26.232H32.68V32.568H34.408C34.8453 32.568 35.256 32.488 35.64 32.328C36.024 32.168 36.3547 31.9493 36.632 31.672C36.92 31.384 37.144 31.048 37.304 30.664C37.464 30.28 37.544 29.8693 37.544 29.432C37.544 28.984 37.464 28.568 37.304 28.184C37.144 27.7893 36.92 27.448 36.632 27.16C36.3547 26.872 36.024 26.648 35.64 26.488C35.256 26.3173 34.8453 26.232 34.408 26.232ZM41.3379 30.776C41.3379 30.168 41.4552 29.5973 41.6899 29.064C41.9352 28.52 42.2605 28.0507 42.6659 27.656C43.0819 27.2613 43.5672 26.952 44.1219 26.728C44.6872 26.4933 45.2899 26.376 45.9299 26.376C46.5699 26.376 47.1672 26.4933 47.7219 26.728C48.2872 26.952 48.7725 27.2613 49.1779 27.656C49.5939 28.0507 49.9192 28.52 50.1539 29.064C50.3992 29.5973 50.5219 30.168 50.5219 30.776C50.5219 31.384 50.3992 31.96 50.1539 32.504C49.9192 33.0373 49.5939 33.5013 49.1779 33.896C48.7725 34.2907 48.2872 34.6 47.7219 34.824C47.1672 35.048 46.5699 35.16 45.9299 35.16C45.2899 35.16 44.6872 35.048 44.1219 34.824C43.5672 34.6 43.0819 34.2907 42.6659 33.896C42.2605 33.5013 41.9352 33.0373 41.6899 32.504C41.4552 31.96 41.3379 31.384 41.3379 30.776ZM45.9299 32.92C46.5059 32.92 46.9912 32.712 47.3859 32.296C47.7912 31.88 47.9939 31.3733 47.9939 30.776C47.9939 30.168 47.7912 29.656 47.3859 29.24C46.9912 28.824 46.5059 28.616 45.9299 28.616C45.3539 28.616 44.8632 28.824 44.4579 29.24C44.0632 29.656 43.8659 30.168 43.8659 30.776C43.8659 31.3733 44.0632 31.88 44.4579 32.296C44.8632 32.712 45.3539 32.92 45.9299 32.92ZM55.7093 35H53.2133L50.9093 26.536H53.3573L54.6053 31.512L56.1253 26.536H58.2693L59.7893 31.528L61.0213 26.536H63.4373L61.1173 35H58.6373L57.1653 30.104L55.7093 35ZM64.3625 35V26.536H66.9545V27.112C67.2638 26.8773 67.6105 26.696 67.9945 26.568C68.3892 26.44 68.7998 26.376 69.2265 26.376C70.2185 26.376 71.0292 26.696 71.6585 27.336C72.2878 27.976 72.6025 28.792 72.6025 29.784V35H70.0105V30.136C70.0105 29.6773 69.8665 29.3093 69.5785 29.032C69.3012 28.744 68.9332 28.6 68.4745 28.6C68.1438 28.6 67.8505 28.6587 67.5945 28.776C67.3385 28.8933 67.1252 29.0587 66.9545 29.272V35H64.3625ZM76.7358 23.24V35H74.1438V23.8L76.7358 23.24ZM77.9473 30.776C77.9473 30.168 78.0646 29.5973 78.2993 29.064C78.5446 28.52 78.8699 28.0507 79.2753 27.656C79.6913 27.2613 80.1766 26.952 80.7313 26.728C81.2966 26.4933 81.8993 26.376 82.5393 26.376C83.1793 26.376 83.7766 26.4933 84.3313 26.728C84.8966 26.952 85.3819 27.2613 85.7873 27.656C86.2033 28.0507 86.5286 28.52 86.7633 29.064C87.0086 29.5973 87.1313 30.168 87.1313 30.776C87.1313 31.384 87.0086 31.96 86.7633 32.504C86.5286 33.0373 86.2033 33.5013 85.7873 33.896C85.3819 34.2907 84.8966 34.6 84.3313 34.824C83.7766 35.048 83.1793 35.16 82.5393 35.16C81.8993 35.16 81.2966 35.048 80.7313 34.824C80.1766 34.6 79.6913 34.2907 79.2753 33.896C78.8699 33.5013 78.5446 33.0373 78.2993 32.504C78.0646 31.96 77.9473 31.384 77.9473 30.776ZM82.5393 32.92C83.1153 32.92 83.6006 32.712 83.9953 32.296C84.4006 31.88 84.6033 31.3733 84.6033 30.776C84.6033 30.168 84.4006 29.656 83.9953 29.24C83.6006 28.824 83.1153 28.616 82.5393 28.616C81.9633 28.616 81.4726 28.824 81.0673 29.24C80.6726 29.656 80.4753 30.168 80.4753 30.776C80.4753 31.3733 80.6726 31.88 81.0673 32.296C81.4726 32.712 81.9633 32.92 82.5393 32.92ZM91.129 35.144C90.233 35.144 89.497 34.8987 88.921 34.408C88.345 33.9173 88.057 33.288 88.057 32.52C88.057 31.72 88.361 31.096 88.969 30.648C89.5877 30.2 90.4463 29.976 91.545 29.976C91.8757 29.976 92.201 29.9973 92.521 30.04C92.841 30.0827 93.1557 30.1413 93.465 30.216V29.8C93.465 29.3733 93.3263 29.0587 93.049 28.856C92.7823 28.6427 92.3823 28.536 91.849 28.536C91.5183 28.536 91.145 28.5893 90.729 28.696C90.313 28.8027 89.833 28.9733 89.289 29.208L88.361 27.304C89.0437 26.9947 89.7103 26.7653 90.361 26.616C91.0223 26.456 91.673 26.376 92.313 26.376C93.4863 26.376 94.3983 26.6587 95.049 27.224C95.6997 27.7787 96.025 28.5627 96.025 29.576V35H93.465V34.488C93.1237 34.7227 92.761 34.8933 92.377 35C92.0037 35.096 91.5877 35.144 91.129 35.144ZM90.521 32.472C90.521 32.7387 90.6383 32.9467 90.873 33.096C91.1077 33.2453 91.433 33.32 91.849 33.32C92.1583 33.32 92.4463 33.288 92.713 33.224C92.9903 33.16 93.241 33.0587 93.465 32.92V31.832C93.2197 31.768 92.969 31.72 92.713 31.688C92.457 31.656 92.1957 31.64 91.929 31.64C91.481 31.64 91.1343 31.7147 90.889 31.864C90.6437 32.0027 90.521 32.2053 90.521 32.472ZM103.774 35V34.376C103.443 34.6107 103.086 34.792 102.702 34.92C102.318 35.048 101.918 35.112 101.502 35.112C100.904 35.112 100.339 35 99.8056 34.776C99.283 34.552 98.8243 34.2427 98.4296 33.848C98.0456 33.4533 97.7416 32.9947 97.5176 32.472C97.2936 31.9387 97.1816 31.368 97.1816 30.76C97.1816 30.152 97.2936 29.5867 97.5176 29.064C97.7523 28.5307 98.067 28.072 98.4616 27.688C98.8563 27.2933 99.3203 26.984 99.8536 26.76C100.398 26.536 100.974 26.424 101.582 26.424C101.976 26.424 102.355 26.472 102.718 26.568C103.08 26.664 103.422 26.8027 103.742 26.984V23.8L106.334 23.24V35H103.774ZM99.7256 30.76C99.7256 31.368 99.939 31.88 100.366 32.296C100.803 32.7013 101.331 32.904 101.95 32.904C102.312 32.904 102.643 32.8507 102.942 32.744C103.24 32.6267 103.507 32.456 103.742 32.232V29.272C103.518 29.0693 103.251 28.9093 102.942 28.792C102.632 28.6747 102.302 28.616 101.95 28.616C101.32 28.616 100.792 28.824 100.366 29.24C99.939 29.6453 99.7256 30.152 99.7256 30.76Z" fill="white"/>
<path d="M115.584 35L111.968 26.536H114.784L116.88 31.72L118.976 26.536H121.728L118.112 35H115.584ZM126.903 23.8V35H124.311V26.424L121.991 27.352V25.112L125.271 23.8H126.903ZM129.736 32.2C130.141 32.2 130.488 32.3493 130.776 32.648C131.075 32.936 131.224 33.2827 131.224 33.688C131.224 34.0933 131.075 34.4453 130.776 34.744C130.488 35.032 130.141 35.176 129.736 35.176C129.331 35.176 128.979 35.032 128.68 34.744C128.392 34.4453 128.248 34.0933 128.248 33.688C128.248 33.2827 128.392 32.936 128.68 32.648C128.979 32.3493 129.331 32.2 129.736 32.2ZM141.269 31.848C141.269 32.328 141.152 32.7707 140.917 33.176C140.682 33.5813 140.357 33.9333 139.941 34.232C139.536 34.52 139.045 34.7493 138.469 34.92C137.904 35.08 137.285 35.16 136.613 35.16C135.706 35.16 134.848 35 134.037 34.68C133.237 34.36 132.576 33.9173 132.053 33.352L133.797 31.752C134.224 32.2 134.64 32.5093 135.045 32.68C135.461 32.8507 135.973 32.936 136.581 32.936C137.2 32.936 137.696 32.8187 138.069 32.584C138.453 32.3493 138.645 32.0347 138.645 31.64C138.645 31.3093 138.48 31.048 138.149 30.856C137.829 30.664 137.381 30.568 136.805 30.568H135.749V28.504H136.533C137.066 28.504 137.504 28.376 137.845 28.12C138.186 27.8533 138.357 27.5173 138.357 27.112C138.357 26.7493 138.186 26.456 137.845 26.232C137.514 25.9973 137.088 25.88 136.565 25.88C136.032 25.88 135.568 25.976 135.173 26.168C134.789 26.3493 134.362 26.68 133.893 27.16L132.133 25.576C132.677 24.968 133.354 24.4933 134.165 24.152C134.976 23.8 135.808 23.624 136.661 23.624C137.29 23.624 137.872 23.704 138.405 23.864C138.938 24.0133 139.392 24.2267 139.765 24.504C140.138 24.7813 140.432 25.1173 140.645 25.512C140.858 25.9067 140.965 26.3387 140.965 26.808C140.965 27.352 140.826 27.8533 140.549 28.312C140.272 28.76 139.888 29.1227 139.397 29.4C139.973 29.624 140.426 29.9493 140.757 30.376C141.098 30.8027 141.269 31.2933 141.269 31.848ZM151.187 23.8V30.36H152.579V32.52H151.187V35H148.595V32.52H142.291V30.424L148.163 23.8H151.187ZM145.251 30.36H148.595V26.6L145.251 30.36ZM155.033 32.2C155.438 32.2 155.785 32.3493 156.073 32.648C156.371 32.936 156.521 33.2827 156.521 33.688C156.521 34.0933 156.371 34.4453 156.073 34.744C155.785 35.032 155.438 35.176 155.033 35.176C154.627 35.176 154.275 35.032 153.977 34.744C153.689 34.4453 153.545 34.0933 153.545 33.688C153.545 33.2827 153.689 32.936 153.977 32.648C154.275 32.3493 154.627 32.2 155.033 32.2ZM161.013 23.8V35H158.421V26.424L156.101 27.352V25.112L159.381 23.8H161.013Z" fill="#D9B8FF"/>
</svg>
