<svg width="139" height="58" viewBox="0 0 139 58" fill="none" xmlns="http://www.w3.org/2000/svg">
<rect width="139" height="58" rx="29" fill="#855FB1"/>
<path d="M34.776 35H31.864L29.368 23.8H32.2L33.56 30.712L35.512 23.8H38.088L40.04 30.712L41.4 23.8H44.136L41.64 35H38.728L36.76 27.864L34.776 35ZM45.3 35V23.8L47.892 23.24V27.112C48.2013 26.8773 48.548 26.696 48.932 26.568C49.3267 26.44 49.7373 26.376 50.164 26.376C51.156 26.376 51.9667 26.696 52.596 27.336C53.2253 27.976 53.54 28.792 53.54 29.784V35H50.948V30.136C50.948 29.6773 50.804 29.3093 50.516 29.032C50.2387 28.744 49.8707 28.6 49.412 28.6C49.0813 28.6 48.788 28.6587 48.532 28.776C48.276 28.8933 48.0627 29.0587 47.892 29.272V35H45.3ZM57.7853 35.144C56.8893 35.144 56.1533 34.8987 55.5773 34.408C55.0013 33.9173 54.7133 33.288 54.7133 32.52C54.7133 31.72 55.0173 31.096 55.6253 30.648C56.2439 30.2 57.1026 29.976 58.2013 29.976C58.5319 29.976 58.8573 29.9973 59.1773 30.04C59.4973 30.0827 59.8119 30.1413 60.1213 30.216V29.8C60.1213 29.3733 59.9826 29.0587 59.7053 28.856C59.4386 28.6427 59.0386 28.536 58.5052 28.536C58.1746 28.536 57.8013 28.5893 57.3853 28.696C56.9693 28.8027 56.4893 28.9733 55.9453 29.208L55.0173 27.304C55.6999 26.9947 56.3666 26.7653 57.0173 26.616C57.6786 26.456 58.3293 26.376 58.9693 26.376C60.1426 26.376 61.0546 26.6587 61.7053 27.224C62.3559 27.7787 62.6813 28.5627 62.6813 29.576V35H60.1213V34.488C59.7799 34.7227 59.4173 34.8933 59.0333 35C58.6599 35.096 58.2439 35.144 57.7853 35.144ZM57.1773 32.472C57.1773 32.7387 57.2946 32.9467 57.5293 33.096C57.7639 33.2453 58.0893 33.32 58.5052 33.32C58.8146 33.32 59.1026 33.288 59.3693 33.224C59.6466 33.16 59.8973 33.0587 60.1213 32.92V31.832C59.8759 31.768 59.6253 31.72 59.3693 31.688C59.1133 31.656 58.8519 31.64 58.5853 31.64C58.1373 31.64 57.7906 31.7147 57.5453 31.864C57.2999 32.0027 57.1773 32.2053 57.1773 32.472ZM65.1094 32.424V28.696H63.3974V26.536H65.1094V24.36L67.7014 23.8V26.536H70.0694V28.696H67.7014V31.912C67.7014 32.2853 67.7814 32.552 67.9414 32.712C68.112 32.8613 68.4054 32.936 68.8214 32.936C69.024 32.936 69.216 32.9253 69.3974 32.904C69.5787 32.872 69.776 32.824 69.9894 32.76V34.856C69.7547 34.9307 69.456 34.9893 69.0934 35.032C68.7307 35.0853 68.4267 35.112 68.1814 35.112C67.168 35.112 66.4 34.888 65.8774 34.44C65.3654 33.9813 65.1094 33.3093 65.1094 32.424ZM75.5023 25.752C75.1076 25.752 74.7716 25.6133 74.4943 25.336C74.2169 25.0587 74.0783 24.7227 74.0783 24.328C74.0783 23.9333 74.2169 23.5973 74.4943 23.32C74.7716 23.0427 75.1076 22.904 75.5023 22.904C75.8969 22.904 76.2329 23.0427 76.5103 23.32C76.7876 23.5973 76.9263 23.9333 76.9263 24.328C76.9263 24.7227 76.7876 25.0587 76.5103 25.336C76.2329 25.6133 75.8969 25.752 75.5023 25.752ZM76.7983 26.536V35H74.2063V26.536H76.7983ZM77.7378 34.056L78.9698 32.312C79.5031 32.632 79.9884 32.8667 80.4258 33.016C80.8631 33.1547 81.2951 33.224 81.7218 33.224C82.1484 33.224 82.4844 33.1653 82.7298 33.048C82.9858 32.92 83.1138 32.7547 83.1138 32.552C83.1138 32.392 83.0444 32.264 82.9058 32.168C82.7671 32.0613 82.5484 31.9867 82.2498 31.944L80.5698 31.688C79.7378 31.56 79.0978 31.2827 78.6497 30.856C78.2018 30.4187 77.9778 29.8533 77.9778 29.16C77.9778 28.3067 78.3031 27.6347 78.9538 27.144C79.6044 26.6533 80.4951 26.408 81.6258 26.408C82.2338 26.408 82.8418 26.4987 83.4498 26.68C84.0684 26.8507 84.6391 27.1013 85.1618 27.432L83.9298 29.096C83.4711 28.8293 83.0338 28.6373 82.6178 28.52C82.2018 28.392 81.7858 28.328 81.3698 28.328C81.0391 28.328 80.7724 28.3867 80.5698 28.504C80.3671 28.6107 80.2658 28.7547 80.2658 28.936C80.2658 29.1067 80.3404 29.2453 80.4898 29.352C80.6391 29.448 80.8951 29.5227 81.2578 29.576L82.9378 29.832C83.7698 29.9493 84.4098 30.2267 84.8578 30.664C85.3164 31.0907 85.5458 31.6347 85.5458 32.296C85.5458 32.7013 85.4498 33.08 85.2578 33.432C85.0658 33.784 84.7991 34.088 84.4578 34.344C84.1271 34.6 83.7271 34.8027 83.2578 34.952C82.7884 35.0907 82.2818 35.16 81.7378 35.16C80.9378 35.16 80.1911 35.0693 79.4978 34.888C78.8151 34.696 78.2284 34.4187 77.7378 34.056ZM90.9554 25.752C90.5607 25.752 90.2247 25.6133 89.9474 25.336C89.67 25.0587 89.5314 24.7227 89.5314 24.328C89.5314 23.9333 89.67 23.5973 89.9474 23.32C90.2247 23.0427 90.5607 22.904 90.9554 22.904C91.35 22.904 91.686 23.0427 91.9634 23.32C92.2407 23.5973 92.3794 23.9333 92.3794 24.328C92.3794 24.7227 92.2407 25.0587 91.9634 25.336C91.686 25.6133 91.35 25.752 90.9554 25.752ZM92.2514 26.536V35H89.6594V26.536H92.2514ZM95.0469 32.424V28.696H93.3349V26.536H95.0469V24.36L97.6389 23.8V26.536H100.007V28.696H97.6389V31.912C97.6389 32.2853 97.7189 32.552 97.8789 32.712C98.0495 32.8613 98.3429 32.936 98.7589 32.936C98.9615 32.936 99.1535 32.9253 99.3349 32.904C99.5162 32.872 99.7135 32.824 99.9269 32.76V34.856C99.6922 34.9307 99.3935 34.9893 99.0309 35.032C98.6682 35.0853 98.3642 35.112 98.1189 35.112C97.1055 35.112 96.3375 34.888 95.8149 34.44C95.3029 33.9813 95.0469 33.3093 95.0469 32.424ZM106.723 29.624L106.323 29.896C106.014 30.0987 105.795 30.3227 105.667 30.568C105.55 30.8027 105.497 31.1173 105.507 31.512H103.347C103.305 30.776 103.369 30.2 103.539 29.784C103.71 29.368 104.046 28.9733 104.547 28.6L105.411 27.96C105.678 27.7573 105.875 27.5653 106.003 27.384C106.142 27.2027 106.211 27.0267 106.211 26.856C106.211 26.5467 106.073 26.2907 105.795 26.088C105.518 25.8747 105.166 25.768 104.739 25.768C104.281 25.768 103.859 25.8907 103.475 26.136C103.102 26.3813 102.835 26.7067 102.675 27.112L100.579 26.328C100.878 25.5067 101.411 24.8507 102.179 24.36C102.958 23.8693 103.843 23.624 104.835 23.624C105.39 23.624 105.907 23.704 106.387 23.864C106.867 24.0133 107.278 24.2267 107.619 24.504C107.971 24.7813 108.243 25.1067 108.435 25.48C108.638 25.8533 108.739 26.2587 108.739 26.696C108.739 27.2827 108.59 27.7893 108.291 28.216C108.003 28.632 107.481 29.1013 106.723 29.624ZM104.435 32.2C104.841 32.2 105.187 32.3493 105.475 32.648C105.774 32.936 105.923 33.2827 105.923 33.688C105.923 34.0933 105.774 34.4453 105.475 34.744C105.187 35.032 104.841 35.176 104.435 35.176C104.03 35.176 103.678 35.032 103.379 34.744C103.091 34.4453 102.947 34.0933 102.947 33.688C102.947 33.2827 103.091 32.936 103.379 32.648C103.678 32.3493 104.03 32.2 104.435 32.2Z" fill="white"/>
</svg>
